<svg width="24" height="24" viewBox="0 0 24 24" fill="none" xmlns="http://www.w3.org/2000/svg">
<g clip-path="url(#clip0_118_10)">
<path d="M12.4771 0.0101204C5.8551 -0.25288 0.274097 4.90212 0.011097 11.5241C-0.251903 18.1471 4.9031 23.7281 11.5261 23.9901C18.1481 24.2531 23.7291 19.0981 23.9921 12.4761C24.2551 5.85412 19.0991 0.27212 12.4771 0.0101204ZM17.5431 17.5891C17.449 17.7541 17.2932 17.875 17.11 17.9252C16.9269 17.9755 16.7312 17.951 16.5661 17.8571C14.9796 16.9544 13.236 16.3616 11.4281 16.1101C9.62109 15.8535 7.78177 15.9428 6.0081 16.3731C5.82709 16.4082 5.6395 16.3723 5.48431 16.2727C5.32912 16.1731 5.21826 16.0176 5.17475 15.8384C5.13124 15.6593 5.15843 15.4702 5.25068 15.3105C5.34293 15.1509 5.49313 15.0329 5.6701 14.9811C7.6201 14.5071 9.6251 14.4101 11.6281 14.6911C13.6311 14.9731 15.5311 15.6191 17.2751 16.6111C17.3569 16.6577 17.4287 16.72 17.4865 16.7944C17.5442 16.8688 17.5868 16.9538 17.6117 17.0446C17.6366 17.1354 17.6433 17.2303 17.6315 17.3237C17.6198 17.4171 17.5897 17.5073 17.5431 17.5891ZM19.1201 14.4391C19.062 14.5468 18.9833 14.6419 18.8884 14.7191C18.7935 14.7963 18.6843 14.854 18.5671 14.8889C18.4499 14.9239 18.3269 14.9353 18.2052 14.9227C18.0836 14.91 17.9656 14.8734 17.8581 14.8151C16.0003 13.8107 13.9778 13.1469 11.8861 12.8551C9.795 12.5591 7.6678 12.6397 5.6051 13.0931C5.48558 13.1196 5.36201 13.1223 5.24147 13.1009C5.12093 13.0795 5.00579 13.0346 4.90267 12.9686C4.79954 12.9026 4.71045 12.817 4.64051 12.7165C4.57057 12.616 4.52115 12.5027 4.4951 12.3831C4.4686 12.2636 4.46596 12.14 4.48732 12.0195C4.50869 11.899 4.55364 11.7838 4.61961 11.6807C4.68557 11.5776 4.77125 11.4885 4.87172 11.4185C4.97219 11.3486 5.08548 11.2992 5.2051 11.2731C7.48412 10.7712 9.83472 10.6825 12.1451 11.0111C14.4566 11.3321 16.6917 12.0654 18.7441 13.1761C19.1961 13.4211 19.3641 13.9861 19.1201 14.4391ZM20.8681 10.8881C20.7277 11.1577 20.486 11.3606 20.1961 11.4521C19.9062 11.5436 19.5919 11.5162 19.3221 11.3761C17.1587 10.2514 14.819 9.50463 12.4041 9.16812C9.98985 8.8257 7.53484 8.89842 5.1451 9.38312C4.84893 9.43943 4.54251 9.37676 4.29222 9.20871C4.04194 9.04065 3.86796 8.78075 3.80797 8.4853C3.74799 8.18986 3.80684 7.88268 3.97177 7.63033C4.1367 7.37797 4.39442 7.20077 4.6891 7.13712C7.3339 6.60029 10.051 6.51912 12.7231 6.89712C15.396 7.2702 17.9856 8.09709 20.3801 9.34212C20.9411 9.63412 21.1601 10.3261 20.8681 10.8881ZM34.4801 10.8521L33.6481 10.6051C31.9781 10.1101 31.5081 9.92412 31.5081 9.25212C31.5081 8.61512 32.2161 7.92512 33.7721 7.92512C35.3111 7.92512 36.6111 8.67712 37.2821 9.23512C37.3981 9.33112 37.5221 9.28712 37.5221 9.13712V6.93512C37.5221 6.83812 37.4951 6.78512 37.4241 6.73212C36.5941 6.11212 35.1521 5.66212 33.7011 5.66212C30.7481 5.66212 28.9791 7.34212 28.9791 9.25212C28.9791 11.4091 30.3501 12.1621 32.6051 12.7981L33.5781 13.0721C35.2671 13.5501 35.5761 13.9741 35.5761 14.6281C35.5761 15.7251 34.7451 16.0611 33.5061 16.0611C31.9501 16.0611 30.0491 15.1501 29.1561 14.0361C29.0761 13.9381 28.9791 13.9831 28.9791 14.0981V16.5211C28.9791 16.6181 28.9891 16.6621 29.0591 16.7411C29.8021 17.5551 31.5791 18.2711 33.6491 18.2711C36.1951 18.2711 38.1051 16.7861 38.1051 14.4871C38.1051 12.7001 37.0531 11.6221 34.4801 10.8521ZM44.5871 9.09212C42.9071 9.09212 41.9341 10.1181 41.3681 11.1441V9.37612C41.3681 9.29612 41.3241 9.25212 41.2441 9.25212H39.0241C38.9451 9.25212 38.9011 9.29612 38.9011 9.37612V20.7201C38.9011 20.8001 38.9451 20.8441 39.0251 20.8441H41.2451C41.3241 20.8441 41.3681 20.8001 41.3681 20.7201V16.1841C41.9341 17.2091 42.8891 18.2181 44.6051 18.2181C46.8691 18.2181 48.4951 16.2631 48.4951 13.6371C48.4951 11.0111 46.8511 9.09212 44.5871 9.09212ZM43.9331 16.0781C42.7481 16.0781 41.7221 14.9111 41.3151 13.6201C41.7221 12.2581 42.6591 11.2151 43.9331 11.2151C45.1441 11.2151 45.9841 12.1351 45.9841 13.6381C45.9841 15.1411 45.1441 16.0781 43.9331 16.0781ZM84.5661 9.25212H82.3021C82.2221 9.25212 82.1871 9.26912 82.1521 9.34912L79.8701 14.8321L77.5801 9.34912C77.5451 9.26912 77.5101 9.25212 77.4301 9.25212H73.7691V8.66812C73.7691 7.71312 74.4141 7.27112 75.2451 7.27112C75.7411 7.27112 76.2801 7.52712 76.6601 7.75712C76.7491 7.81012 76.8101 7.74912 76.7751 7.66912L75.9791 5.76812C75.9551 5.71031 75.9111 5.66308 75.8551 5.63512C75.4661 5.43212 74.8301 5.25512 74.2111 5.25512C72.3361 5.25512 71.2571 6.68712 71.2571 8.50912V9.25212H69.7541C69.6741 9.25212 69.6301 9.29612 69.6301 9.37612V11.1441C69.6301 11.2241 69.6741 11.2681 69.7541 11.2681H71.2571V17.9361C71.2571 18.0161 71.3011 18.0591 71.3811 18.0591H73.6451C73.7251 18.0591 73.7691 18.0151 73.7691 17.9361V11.2681H75.7051L78.5171 17.3781L77.0051 20.7031C76.9611 20.8011 77.0141 20.8451 77.1021 20.8451H79.5161C79.5961 20.8451 79.6321 20.8271 79.6661 20.7481L84.6631 9.39312C84.6981 9.31312 84.6541 9.25212 84.5661 9.25212ZM54.0141 9.04012C51.1491 9.04012 49.1771 11.0651 49.1771 13.6561C49.1771 16.2291 51.1481 18.2721 54.0141 18.2721C56.8701 18.2721 58.8601 16.2291 58.8601 13.6561C58.8601 11.0651 56.8701 9.04012 54.0141 9.04012ZM54.0221 16.1051C52.6521 16.1051 51.6791 15.0621 51.6791 13.6551C51.6791 12.2501 52.6521 11.2061 54.0221 11.2061C55.3841 11.2061 56.3571 12.2491 56.3571 13.6561C56.3571 15.0621 55.3841 16.1061 54.0221 16.1061M87.5631 9.77212C87.4487 9.5735 87.2815 9.41046 87.0801 9.30112C86.8677 9.18555 86.6289 9.12698 86.3871 9.13112C86.1311 9.13112 85.9001 9.18779 85.6941 9.30112C85.4923 9.41032 85.3247 9.57336 85.2101 9.77212C85.0941 9.97345 85.0361 10.2005 85.0361 10.4531C85.0361 10.7031 85.0941 10.9288 85.2101 11.1301C85.3268 11.3301 85.4881 11.4871 85.6941 11.6011C85.9001 11.7151 86.1311 11.7718 86.3871 11.7711C86.6431 11.7705 86.8741 11.7138 87.0801 11.6011C87.2861 11.4885 87.4471 11.3315 87.5631 11.1301C87.6791 10.9288 87.7374 10.7035 87.7381 10.4541C87.7381 10.2008 87.6798 9.97345 87.5631 9.77212ZM87.3521 11.0191C87.2601 11.1837 87.1236 11.3189 86.9581 11.4091C86.7831 11.5045 86.5863 11.5527 86.3871 11.5491C86.1862 11.5531 85.9877 11.5049 85.8111 11.4091C85.6467 11.3184 85.5112 11.1832 85.4201 11.0191C85.3252 10.8458 85.2769 10.6507 85.2801 10.4531C85.2801 10.2425 85.3268 10.0551 85.4201 9.89112C85.5134 9.72712 85.6438 9.59779 85.8111 9.50312C85.9784 9.40845 86.1704 9.36179 86.3871 9.36312C86.6004 9.36312 86.7904 9.40979 86.9571 9.50312C87.1258 9.59712 87.2574 9.72712 87.3521 9.89312C87.4468 10.0591 87.4941 10.2475 87.4941 10.4581C87.4941 10.6661 87.4468 10.8528 87.3521 11.0181M67.5171 5.23812C66.6671 5.23812 66.0491 5.83812 66.0491 6.63412C66.0491 7.43012 66.6681 8.03112 67.5171 8.03112C68.3831 8.03112 69.0021 7.43112 69.0021 6.63412C69.0021 5.83812 68.3831 5.23812 67.5171 5.23812ZM86.8461 10.4271C86.8884 10.398 86.9228 10.3588 86.9462 10.313C86.9696 10.2673 86.9812 10.2165 86.9801 10.1651C86.9801 10.0531 86.9361 9.96445 86.8481 9.89912C86.7601 9.83312 86.6331 9.80012 86.4671 9.80012H85.8791V11.0291H86.1631V10.5401H86.3171L86.6911 11.0291H87.0411L86.6311 10.5111C86.7083 10.5003 86.782 10.4715 86.8461 10.4271ZM86.4221 10.3181H86.1621V10.0181H86.4321C86.5121 10.0181 86.5734 10.0301 86.6161 10.0541C86.6372 10.0649 86.6546 10.0817 86.6661 10.1023C86.6777 10.1229 86.6829 10.1465 86.6811 10.1701C86.6817 10.1931 86.6758 10.2158 86.6639 10.2354C86.652 10.2551 86.6347 10.271 86.6141 10.2811C86.5541 10.3091 86.4882 10.3219 86.4221 10.3181ZM68.6571 9.25212H66.3941C66.3141 9.25212 66.2701 9.29612 66.2701 9.37612V17.9361C66.2701 18.0161 66.3141 18.0591 66.3941 18.0591H68.6571C68.7371 18.0591 68.7811 18.0151 68.7811 17.9361V9.37612C68.7811 9.29612 68.7371 9.25212 68.6571 9.25212ZM65.3241 15.8571C65.0016 16.0335 64.6385 16.1221 64.2711 16.1141C63.5461 16.1141 63.0861 15.6891 63.0861 14.7521V11.2681H65.2971C65.3771 11.2681 65.4211 11.2241 65.4211 11.1441V9.37612C65.4211 9.29612 65.3771 9.25212 65.2971 9.25212H63.0871V6.94412C63.0871 6.84712 63.0241 6.79412 62.9371 6.86412L58.9831 9.97712C58.9301 10.0211 58.9131 10.0651 58.9131 10.1371V11.1441C58.9131 11.2241 58.9571 11.2681 59.0361 11.2681H60.5751V15.1231C60.5751 17.2101 61.7781 18.1831 63.4931 18.1831C64.2361 18.1831 64.9531 17.9891 65.3771 17.7411C65.4391 17.7061 65.4471 17.6711 65.4471 17.6081V15.9281C65.4471 15.8401 65.4031 15.8121 65.3241 15.8571Z" fill="white"/>
</g>
<defs>
<clipPath id="clip0_118_10">
<rect width="24" height="24" fill="white"/>
</clipPath>
</defs>
</svg>
